# xmcd CD database file
#
# Track frame offsets:
#	150
#	19172
#	53232
#	73365
#	105957
#	128645
#	156962
#	177357
#	198262
#	225937
#	251142
#	279812
#
# Disc length: 4069 seconds
#
# Revision: 0
# Processed by: cddbd v1.5.2PL0 Copyright (c) Steve Scherf et al.
# Submitted via: CDex 1.51
#
DISCID=9c0fe30c
DTITLE=Tommy Flanagan - for Bird, Monk, Trane and Thad
DYEAR=1997
DGENRE=Jazz
TTITLE0=Thelonious
TTITLE1=Reflections
TTITLE2=North Of The Sunset
TTITLE3=Cousin Mary
TTITLE4=Naima
TTITLE5=Giant Steps
TTITLE6=Scrapple From The Apple
TTITLE7=Relaxin' At The Camarillo
TTITLE8=Confirmation
TTITLE9=Let's
TTITLE10=A Child Is Born
TTITLE11=Mean What You Say
EXTD=YEAR: 1997
EXTT0=
EXTT1=
EXTT2=
EXTT3=
EXTT4=
EXTT5=
EXTT6=
EXTT7=
EXTT8=
EXTT9=
EXTT10=
EXTT11=
PLAYORDER=
